# xmcd
#
# Track frame offsets:
#	150
#	16950
#	35263
#	50788
#	64488
#	77463
#	90863
#	105638
#	120313
#	134888
#	153050
#	163250
# Disc length: 2379 seconds
# Revision: 1
# Processed by: cddbd v1.5.1PL2 Copyright (c) Steve Scherf et al.
#
# Submitted via: libkcddb 0.21
#
DISCID=9309490c
DTITLE=Mats Rådberg - Jag ger dig min morgon
DYEAR=1900
DGENRE=Pop
TTITLE0=Jag ger dig min morgon
TTITLE1=Sizzi
TTITLE2=Per Ols Per Erik
TTITLE3=Turistens Klagan
TTITLE4=Barfotavisan
TTITLE5=Jungman Jansson
TTITLE6=Brooklandsvägen
TTITLE7=Morgon på Kungsholmen
TTITLE8=Vita duvan
TTITLE9=Drömmens skepp
TTITLE10=Visa vid vindens ängar
TTITLE11=Jag väntar vid min mila
EXTD=TMCCD116
EXTT0=
EXTT1=
EXTT2=
EXTT3=
EXTT4=
EXTT5=
EXTT6=
EXTT7=
EXTT8=
EXTT9=
EXTT10=
EXTT11=
PLAYORDER=
